<?xml version="1.0" standalone="no"?>
<!DOCTYPE svg PUBLIC "-//W3C//DTD SVG 20010904//EN"
 "http://www.w3.org/TR/2001/REC-SVG-20010904/DTD/svg10.dtd">
<svg version="1.0" xmlns="http://www.w3.org/2000/svg"
 viewBox="0 0 1989.000000 1989.000000" preserveAspectRatio="xMidYMid meet">

<g transform="translate(0.000000,1989.000000) scale(0.100000,-0.100000)"
fill="#A83C12" stroke="none">
<path d="M8405 19767 c-1705 -875 -2873 -1816 -3567 -2877 -927 -1416 -952
-2996 -73 -4750 359 -716 867 -1459 1593 -2329 86 -102 258 -305 382 -451
1095 -1282 1560 -1916 1906 -2600 319 -627 458 -1183 441 -1750 -29 -938 -368
-1831 -965 -2545 -182 -217 -484 -496 -722 -665 -232 -166 -558 -347 -800
-444 -813 -328 -1681 -380 -2565 -154 -532 135 -1011 369 -1445 704 -142 110
-440 404 -550 544 -382 483 -607 1040 -671 1659 -15 142 -6 469 16 606 94 595
384 1131 861 1595 574 557 1323 924 2119 1036 84 12 197 18 379 19 l258 1 24
59 c13 32 22 60 20 62 -10 11 -382 24 -516 18 -672 -27 -1267 -178 -1851 -471
-1253 -627 -2174 -1832 -2315 -3028 -34 -288 -11 -717 57 -1076 306 -1602
1552 -2670 3393 -2910 143 -18 210 -20 744 -20 563 0 594 1 762 24 1659 227
3165 1244 4004 2705 327 568 540 1195 620 1826 66 519 39 1128 -74 1636 -120
539 -224 846 -421 1239 -312 623 -722 1198 -1640 2300 -296 355 -337 403 -719
821 -664 727 -1064 1241 -1401 1799 -112 187 -315 586 -389 765 -488 1192
-459 2319 90 3440 286 584 678 1118 1240 1689 529 537 1143 1041 1874 1538 88
59 155 108 150 108 -5 0 -117 -56 -249 -123z"/>
<path d="M8993 10315 c877 -1210 1412 -2152 1665 -2935 118 -362 172 -686 172
-1021 0 -80 3 -173 6 -206 l7 -60 111 80 c497 357 1209 779 1811 1073 876 428
1634 674 2340 760 230 27 769 31 738 5 -4 -4 -55 -20 -113 -35 -335 -88 -812
-248 -1185 -398 -1187 -478 -2298 -1164 -3149 -1946 -231 -213 -436 -446 -436
-496 0 -83 348 -402 748 -687 894 -638 1975 -1113 3079 -1354 173 -38 505 -96
666 -116 53 -7 94 -16 90 -19 -20 -18 -433 -58 -730 -71 -707 -32 -1433 67
-2098 286 -449 147 -884 354 -1267 601 -236 152 -504 368 -642 515 l-83 90 -6
-118 c-30 -551 -219 -1241 -504 -1843 -406 -856 -1058 -1601 -1716 -1960 -43
-24 -92 -54 -107 -67 -87 -73 -77 -246 21 -358 l31 -35 119 0 118 0 91 55
c1041 631 1762 1605 2054 2774 48 192 87 399 111 585 8 66 17 121 18 123 2 1
32 -62 66 -141 253 -581 638 -1048 1141 -1383 868 -578 2113 -776 3730 -592
737 83 1581 253 2559 514 217 58 1037 284 1101 304 19 6 5 10 -55 15 -44 4
-138 18 -210 31 -573 106 -1178 422 -1800 940 -385 320 -671 606 -1431 1430
-249 270 -477 496 -576 570 -37 28 -67 52 -67 55 0 3 24 20 54 38 30 18 90 67
134 108 145 136 289 317 718 904 496 678 774 1018 1128 1379 482 492 883 795
1380 1041 231 114 411 186 607 241 65 18 116 34 115 35 -7 7 -535 124 -784
174 -1538 311 -2943 388 -4103 224 -1524 -214 -2623 -842 -3263 -1864 -91
-145 -235 -427 -298 -582 -24 -60 -46 -108 -49 -108 -4 0 -14 35 -24 78 -10
42 -43 154 -73 247 -285 878 -891 1874 -1800 2959 -278 333 -302 357 -160 161z"/>
</g>
</svg>
